<?xml version="1.0" encoding="UTF-8"?>
<svg xmlns="http://www.w3.org/2000/svg" xmlns:xlink="http://www.w3.org/1999/xlink" width="32px" height="32px" viewBox="0 0 32 32" version="1.1">
<g id="surface1">
<path style=" stroke:none;fill-rule:nonzero;fill:rgb(54.901963%,32.156864%,99.607843%);fill-opacity:1;" d="M 0 0 C 10.558594 0 21.121094 0 32 0 C 32 10.558594 32 21.121094 32 32 C 21.441406 32 10.878906 32 0 32 C 0 21.441406 0 10.878906 0 0 Z M 0 0 "/>
<path style=" stroke:none;fill-rule:nonzero;fill:rgb(99.607843%,34.117648%,34.117648%);fill-opacity:1;" d="M 20.625 7.0625 C 20.671875 7.074219 20.722656 7.089844 20.773438 7.101562 C 22.394531 7.554688 23.964844 8.386719 25.125 9.625 C 25.175781 9.675781 25.222656 9.722656 25.273438 9.773438 C 26.515625 11.015625 27.339844 12.488281 27.832031 14.167969 C 27.847656 14.21875 27.863281 14.269531 27.878906 14.324219 C 28.101562 15.128906 28.148438 15.933594 28.144531 16.765625 C 28.144531 16.8125 28.144531 16.863281 28.144531 16.910156 C 28.140625 17.625 28.117188 18.308594 27.9375 19 C 27.925781 19.050781 27.910156 19.101562 27.898438 19.15625 C 27.710938 19.910156 27.460938 20.613281 27.125 21.3125 C 27.085938 21.398438 27.085938 21.398438 27.046875 21.488281 C 26.632812 22.359375 26.011719 23.097656 25.375 23.8125 C 25.398438 23.855469 25.421875 23.894531 25.445312 23.9375 C 26.253906 25.410156 26.867188 26.902344 27.21875 28.542969 C 27.238281 28.636719 27.261719 28.730469 27.28125 28.824219 C 27.375 29.222656 27.429688 29.621094 27.476562 30.027344 C 27.484375 30.09375 27.492188 30.160156 27.5 30.226562 C 27.574219 30.828125 27.5625 31.378906 27.5625 32 C 20.984375 32 14.402344 32 7.625 32 C 7.625 31.394531 7.632812 30.816406 7.699219 30.21875 C 7.707031 30.144531 7.714844 30.070312 7.722656 29.992188 C 7.988281 27.730469 8.753906 25.28125 10.128906 23.441406 C 10.203125 23.3125 10.203125 23.3125 10.148438 23.15625 C 10.058594 22.992188 9.957031 22.847656 9.839844 22.699219 C 8.738281 21.214844 7.992188 19.269531 7.988281 17.410156 C 7.988281 17.363281 7.988281 17.3125 7.988281 17.265625 C 7.988281 17.160156 7.988281 17.058594 7.988281 16.957031 C 7.988281 16.800781 7.988281 16.648438 7.984375 16.492188 C 7.976562 14.296875 8.808594 12.097656 10.25 10.4375 C 10.292969 10.386719 10.335938 10.335938 10.382812 10.285156 C 10.523438 10.125 10.667969 9.96875 10.8125 9.8125 C 10.863281 9.757812 10.914062 9.703125 10.964844 9.648438 C 12.265625 8.292969 13.894531 7.476562 15.6875 7 C 15.757812 6.980469 15.757812 6.980469 15.828125 6.960938 C 17.359375 6.535156 19.109375 6.632812 20.625 7.0625 Z M 20.625 7.0625 "/>
<path style=" stroke:none;fill-rule:nonzero;fill:rgb(99.607843%,86.666667%,34.901962%);fill-opacity:1;" d="M 0 0 C 10.558594 0 21.121094 0 32 0 C 32 3.195312 32 6.394531 32 9.6875 C 31.796875 9.484375 31.589844 9.277344 31.386719 9.074219 C 31.273438 8.957031 31.15625 8.84375 31.042969 8.726562 C 30.984375 8.667969 30.929688 8.613281 30.871094 8.550781 C 30.546875 8.230469 30.222656 7.917969 29.875 7.625 C 29.835938 7.589844 29.796875 7.558594 29.753906 7.523438 C 28.75 6.671875 27.703125 5.910156 26.5625 5.25 C 26.511719 5.21875 26.457031 5.191406 26.40625 5.160156 C 24.808594 4.234375 23.09375 3.558594 21.296875 3.136719 C 21.25 3.125 21.199219 3.113281 21.148438 3.101562 C 20.976562 3.0625 20.800781 3.03125 20.625 3 C 20.582031 2.992188 20.539062 2.984375 20.492188 2.976562 C 19.621094 2.820312 18.769531 2.785156 17.882812 2.792969 C 17.671875 2.792969 17.460938 2.792969 17.246094 2.792969 C 16.488281 2.792969 15.75 2.820312 15 2.9375 C 14.933594 2.949219 14.867188 2.957031 14.800781 2.96875 C 13.246094 3.226562 11.738281 3.703125 10.3125 4.375 C 10.261719 4.398438 10.210938 4.421875 10.160156 4.445312 C 8.957031 5.007812 7.808594 5.695312 6.75 6.5 C 6.714844 6.527344 6.679688 6.554688 6.644531 6.582031 C 5.53125 7.425781 4.421875 8.355469 3.503906 9.414062 C 3.363281 9.578125 3.214844 9.734375 3.070312 9.890625 C 2.742188 10.25 2.441406 10.628906 2.148438 11.015625 C 2.066406 11.121094 1.984375 11.222656 1.902344 11.324219 C 1.316406 12.078125 0.789062 12.867188 0.277344 13.671875 C 0.207031 13.78125 0.136719 13.890625 0.0625 14 C 0.0429688 14 0.0195312 14 0 14 C 0 9.378906 0 4.761719 0 0 Z M 0 0 "/>
<path style=" stroke:none;fill-rule:nonzero;fill:rgb(100%,98.039216%,99.215686%);fill-opacity:1;" d="M 12.0625 24.9375 C 12.289062 25.082031 12.515625 25.226562 12.75 25.375 C 15.015625 26.792969 17.765625 27.21875 20.367188 26.632812 C 20.582031 26.574219 20.789062 26.507812 21 26.4375 C 21.085938 26.410156 21.167969 26.382812 21.253906 26.355469 C 21.773438 26.183594 22.265625 25.976562 22.75 25.722656 C 23.050781 25.5625 23.050781 25.5625 23.1875 25.5625 C 23.1875 27.6875 23.1875 29.8125 23.1875 32 C 19.515625 32 15.84375 32 12.0625 32 C 12.0625 29.667969 12.0625 27.339844 12.0625 24.9375 Z M 12.0625 24.9375 "/>
<path style=" stroke:none;fill-rule:nonzero;fill:rgb(99.607843%,86.666667%,34.901962%);fill-opacity:1;" d="M 10.25 23.25 C 10.410156 23.410156 10.574219 23.574219 10.734375 23.738281 C 11.132812 24.148438 11.546875 24.519531 12 24.875 C 12.0625 24.9375 12.0625 24.9375 12.070312 25.054688 C 12.070312 25.109375 12.070312 25.160156 12.070312 25.214844 C 12.070312 25.300781 12.070312 25.300781 12.070312 25.394531 C 12.070312 25.492188 12.070312 25.492188 12.070312 25.59375 C 12.070312 25.660156 12.070312 25.730469 12.070312 25.800781 C 12.070312 26.03125 12.070312 26.257812 12.070312 26.488281 C 12.070312 26.648438 12.070312 26.804688 12.066406 26.964844 C 12.066406 27.339844 12.066406 27.710938 12.066406 28.085938 C 12.066406 28.628906 12.066406 29.171875 12.066406 29.71875 C 12.066406 30.476562 12.0625 31.238281 12.0625 32 C 10.597656 32 9.132812 32 7.625 32 C 7.625 31.394531 7.632812 30.816406 7.699219 30.21875 C 7.707031 30.144531 7.714844 30.070312 7.722656 29.992188 C 8.003906 27.625 8.835938 25.183594 10.25 23.25 Z M 10.25 23.25 "/>
<path style=" stroke:none;fill-rule:nonzero;fill:rgb(99.607843%,86.666667%,34.901962%);fill-opacity:1;" d="M 25.25 23.875 C 25.292969 23.875 25.332031 23.875 25.375 23.875 C 26.238281 25.367188 26.84375 26.859375 27.21875 28.539062 C 27.238281 28.632812 27.261719 28.730469 27.28125 28.824219 C 27.378906 29.222656 27.429688 29.621094 27.476562 30.027344 C 27.484375 30.09375 27.492188 30.160156 27.5 30.226562 C 27.574219 30.828125 27.5625 31.378906 27.5625 32 C 26.117188 32 24.675781 32 23.1875 32 C 23.160156 30.394531 23.160156 30.394531 23.152344 29.710938 C 23.148438 29.242188 23.144531 28.777344 23.136719 28.308594 C 23.128906 27.933594 23.125 27.558594 23.121094 27.179688 C 23.121094 27.039062 23.117188 26.894531 23.113281 26.75 C 23.085938 25.621094 23.085938 25.621094 23.339844 25.316406 C 23.515625 25.203125 23.675781 25.132812 23.875 25.0625 C 23.992188 24.972656 24.109375 24.882812 24.222656 24.789062 C 24.277344 24.742188 24.335938 24.695312 24.390625 24.648438 C 24.832031 24.269531 24.832031 24.269531 25.25 23.875 Z M 25.25 23.875 "/>
</g>
</svg>
